<svg width="132" height="37" viewBox="0 0 132 37" fill="none" xmlns="http://www.w3.org/2000/svg">
<g opacity="0.6" clip-path="url(#clip0_1_454)">
<path d="M132 36.181C127.989 36.181 125.92 33.9403 124.087 31.9659C122.316 30.0542 120.655 28.2523 117.333 28.2523C114.011 28.2523 112.335 30.0542 110.58 31.9659C108.746 33.9403 106.678 36.181 102.667 36.181C98.6553 36.181 96.5869 33.9403 94.7692 31.9659C92.9986 30.0542 91.3376 28.2523 88.0157 28.2523C84.6937 28.2523 83.0171 30.0542 81.2621 31.9659C79.4288 33.9403 77.3604 36.181 73.3647 36.181C69.3689 36.181 67.2849 33.9403 65.4516 31.9659C63.6809 30.0542 62.0199 28.2523 58.698 28.2523C55.3761 28.2523 53.6994 30.0542 51.9444 31.9659C50.1111 33.9403 48.0427 36.181 44.0313 36.181C40.0199 36.181 37.9516 33.9403 36.1182 31.9659C34.3476 30.0542 32.6866 28.2523 29.3647 28.2523C26.0427 28.2523 24.3661 30.0542 22.5954 31.9659C20.7621 33.9403 18.6937 36.181 14.6823 36.181C10.6709 36.181 8.60256 33.9403 6.76923 31.9659C4.99858 30.0542 3.33761 28.2523 0 28.2523V26.6853C4.0114 26.6853 6.07977 28.926 7.91311 30.9004C9.68376 32.8121 11.3447 34.6141 14.6823 34.6141C18.0199 34.6141 19.6809 32.8121 21.4516 30.9004C23.2849 28.926 25.3533 26.6853 29.3647 26.6853C33.3761 26.6853 35.4444 28.926 37.2778 30.9004C39.0484 32.8121 40.7094 34.6141 44.0313 34.6141C47.3533 34.6141 49.0299 32.8121 50.7849 30.9004C52.6182 28.926 54.6866 26.6853 58.698 26.6853C62.7094 26.6853 64.7778 28.926 66.6111 30.9004C68.3818 32.8121 70.0427 34.6141 73.3647 34.6141C76.6866 34.6141 78.3476 32.8121 80.1182 30.9004C81.9516 28.926 84.0199 26.6853 88.0313 26.6853C92.0427 26.6853 94.1111 28.926 95.9444 30.9004C97.7151 32.8121 99.3761 34.6141 102.698 34.6141C106.02 34.6141 107.697 32.8121 109.452 30.9004C111.285 28.926 113.353 26.6853 117.365 26.6853C121.376 26.6853 123.444 28.926 125.278 30.9004C127.048 32.8121 128.709 34.6141 132.031 34.6141V36.181H132Z" fill="url(#paint0_linear_1_454)"/>
<path d="M132 22.8306C127.989 22.8306 125.92 20.5898 124.087 18.6155C122.316 16.7038 120.655 14.9018 117.333 14.9018C114.011 14.9018 112.335 16.7038 110.58 18.6155C108.746 20.5898 106.678 22.8306 102.667 22.8306C98.6552 22.8306 96.5868 20.5898 94.7535 18.6155C92.9828 16.7038 91.3219 14.9018 87.9999 14.9018C84.678 14.9018 83.0013 16.7038 81.2464 18.6155C79.413 20.5898 77.3447 22.8306 73.3489 22.8306C69.3532 22.8306 67.2691 20.5898 65.4358 18.6155C63.6652 16.7038 62.0042 14.9018 58.6823 14.9018C55.3603 14.9018 53.6837 16.7038 51.9287 18.6155C50.0954 20.5898 48.027 22.8306 44.0156 22.8306C40.0042 22.8306 37.9358 20.5898 36.1025 18.6155C34.3318 16.7038 32.6709 14.9018 29.3489 14.9018C26.027 14.9018 24.3503 16.7038 22.5797 18.6155C20.7464 20.5898 18.678 22.8306 14.6666 22.8306C10.6552 22.8306 8.58682 20.5898 6.75348 18.6155C4.98283 16.7038 3.32186 14.9018 -0.0157471 14.9018V13.3348C3.99565 13.3348 6.06403 15.5756 7.89736 17.5499C9.66801 19.4616 11.329 21.2636 14.6666 21.2636C18.0042 21.2636 19.6652 19.4616 21.4358 17.5499C23.2692 15.5756 25.3375 13.3348 29.3489 13.3348C33.3603 13.3348 35.4287 15.5756 37.262 17.5499C39.0327 19.4616 40.6937 21.2636 44.0156 21.2636C47.3375 21.2636 49.0142 19.4616 50.7691 17.5499C52.6025 15.5756 54.6709 13.3348 58.6823 13.3348C62.6936 13.3348 64.762 15.5756 66.5954 17.5499C68.366 19.4616 70.027 21.2636 73.3489 21.2636C76.6709 21.2636 78.3318 19.4616 80.1025 17.5499C81.9358 15.5756 84.0042 13.3348 88.0156 13.3348C92.027 13.3348 94.0954 15.5756 95.9287 17.5499C97.6993 19.4616 99.3603 21.2636 102.682 21.2636C106.004 21.2636 107.681 19.4616 109.436 17.5499C111.269 15.5756 113.338 13.3348 117.349 13.3348C121.36 13.3348 123.429 15.5756 125.262 17.5499C127.033 19.4616 128.694 21.2636 132.016 21.2636V22.8306H132Z" fill="url(#paint1_linear_1_454)"/>
<path d="M132 9.48006C127.989 9.48006 125.92 7.23932 124.087 5.26496C122.316 3.35328 120.655 1.55128 117.333 1.55128C114.011 1.55128 112.335 3.35328 110.58 5.26496C108.746 7.23932 106.678 9.48006 102.667 9.48006C98.6553 9.48006 96.5869 7.23932 94.7692 5.26496C92.9986 3.35328 91.3376 1.55128 88.0157 1.55128C84.6937 1.55128 83.0171 3.35328 81.2621 5.26496C79.4288 7.23932 77.3604 9.48006 73.3647 9.48006C69.3689 9.48006 67.2849 7.23932 65.4516 5.26496C63.6809 3.35328 62.0199 1.55128 58.698 1.55128C55.3761 1.55128 53.6994 3.35328 51.9444 5.26496C50.1111 7.23932 48.0427 9.48006 44.0313 9.48006C40.0199 9.48006 37.9516 7.23932 36.1182 5.26496C34.3476 3.35328 32.6866 1.55128 29.3647 1.55128C26.0427 1.55128 24.3661 3.35328 22.5954 5.26496C20.7621 7.23932 18.6937 9.48006 14.6823 9.48006C10.6709 9.48006 8.60256 7.23932 6.76923 5.26496C4.99858 3.36895 3.32194 1.56695 0 1.56695V0C4.0114 0 6.07977 2.24074 7.91311 4.2151C9.68376 6.12678 11.3447 7.92878 14.6823 7.92878C18.0199 7.92878 19.6809 6.12678 21.4516 4.2151C23.2849 2.24074 25.3533 0 29.3647 0C33.3761 0 35.4444 2.24074 37.2778 4.2151C39.0484 6.12678 40.7094 7.92878 44.0313 7.92878C47.3533 7.92878 49.0299 6.12678 50.7849 4.2151C52.6182 2.24074 54.6866 0 58.698 0C62.7094 0 64.7778 2.24074 66.6111 4.2151C68.3818 6.12678 70.0427 7.92878 73.3647 7.92878C76.6866 7.92878 78.3476 6.12678 80.1182 4.2151C81.9516 2.24074 84.0199 0 88.0313 0C92.0427 0 94.1111 2.24074 95.9444 4.2151C97.7151 6.12678 99.3761 7.92878 102.698 7.92878C106.02 7.92878 107.697 6.12678 109.452 4.2151C111.285 2.24074 113.353 0 117.365 0C121.376 0 123.444 2.24074 125.278 4.2151C127.048 6.12678 128.709 7.92878 132.031 7.92878V9.49573L132 9.48006Z" fill="url(#paint2_linear_1_454)"/>
</g>
<defs>
<linearGradient id="paint0_linear_1_454" x1="66.0157" y1="26.6853" x2="66.0157" y2="36.181" gradientUnits="userSpaceOnUse">
<stop stop-color="#0088CA"/>
<stop offset="1" stop-color="#0088CA" stop-opacity="0.3"/>
</linearGradient>
<linearGradient id="paint1_linear_1_454" x1="65.9999" y1="13.3348" x2="65.9999" y2="22.8306" gradientUnits="userSpaceOnUse">
<stop stop-color="#0088CA"/>
<stop offset="1" stop-color="#0088CA" stop-opacity="0.3"/>
</linearGradient>
<linearGradient id="paint2_linear_1_454" x1="66.0157" y1="0" x2="66.0157" y2="9.49573" gradientUnits="userSpaceOnUse">
<stop stop-color="#0088CA"/>
<stop offset="1" stop-color="#0088CA" stop-opacity="0.3"/>
</linearGradient>
<clipPath id="clip0_1_454">
<rect width="132" height="36.1809" fill="white"/>
</clipPath>
</defs>
</svg>
