<svg width="16" height="16" viewBox="0 0 16 16" fill="none" xmlns="http://www.w3.org/2000/svg">
<path d="M13.5822 16H2.4178C1.24744 16 0.296316 15.0489 0.296316 13.8785V3.30665C0.296316 2.13628 1.24744 1.18516 2.4178 1.18516H3.25927V0.592582C3.25927 0.266652 3.52598 0 3.8519 0C4.17783 0 4.44449 0.266652 4.44449 0.592582V1.18516H11.5556V0.592582C11.5556 0.266652 11.8223 0 12.1482 0C12.4741 0 12.7408 0.266652 12.7408 0.592582V1.18516H13.5822C14.7526 1.18516 15.7037 2.13628 15.7037 3.30665V13.8785C15.7037 15.0489 14.7526 16 13.5822 16ZM14.5185 3.30665C14.5185 2.79111 14.0978 2.37038 13.5822 2.37038H12.7408V2.96296C12.7408 3.28889 12.4741 3.55554 12.1482 3.55554C11.8223 3.55554 11.5556 3.28889 11.5556 2.96296V2.37038H4.44449V2.96296C4.44449 3.28889 4.17783 3.55554 3.8519 3.55554C3.52598 3.55554 3.25932 3.28889 3.25932 2.96296V2.37038H2.41785C1.90231 2.37038 1.48158 2.79111 1.48158 3.30665V5.03704H14.5185V3.30665ZM14.5185 6.22221H1.48148V13.8785C1.48148 14.3941 1.90221 14.8148 2.41775 14.8148H13.5822C14.0978 14.8148 14.5185 14.3941 14.5185 13.8785V6.22221Z" fill="#151A25"/>
</svg>
