<svg width="28" height="24" viewBox="0 0 28 24" fill="none" xmlns="http://www.w3.org/2000/svg">
<path d="M19.8622 22.447H14.6106V19.1127H13.0576V22.447H7.8054C7.28855 22.447 7.02866 22.8351 7.02866 23.2238C7.02866 23.6121 7.28858 24 7.8054 24H19.8619C20.3788 24 20.6386 23.6119 20.6386 23.2232C20.6386 22.8348 20.3787 22.447 19.8622 22.447Z" fill="#D02D90"/>
<path d="M26.8029 0.991075H14.9508V0.489237C14.9508 0.244918 14.7893 0 14.4616 0H13.2061C12.8807 0 12.7168 0.244319 12.7168 0.489237V0.991075H0.863171C0.346319 0.991075 0.0864258 1.37916 0.0864258 1.76782C0.0864258 2.15648 0.34635 2.54457 0.863171 2.54457H26.8034C27.3202 2.54457 27.5801 2.15648 27.5801 1.76782C27.5798 1.37913 27.3205 0.991075 26.8037 0.991075H26.8029Z" fill="#D02D90"/>
<path d="M26.0261 16.7595V3.32073L24.5587 3.32854V16.7597L3.1081 16.7594V3.32824L1.6392 3.32043V16.7592C1.12235 16.7592 0.862457 17.1473 0.862457 17.536C0.862457 17.9246 1.12238 18.3127 1.6392 18.3127H26.0257C26.5426 18.3127 26.8025 17.9246 26.8025 17.536C26.8025 17.1476 26.5426 16.7598 26.0257 16.7598L26.0261 16.7595Z" fill="#D02D90"/>
</svg>
